# xmcd
#
# Track frame offsets: 
#        150
#        8272
#        22595
#        26495
#        40995
#        47584
#        58236
#        64753
#        77960
#        93230
#        101233
#        107239
#        117889
#        131439
#        139584
#        152366
#        159593
#        172407
#        201375
#        239488
#
# Disc length: 4440 seconds
#
# Revision: 2
# Processed by: cddbd v1.5.2PL0 Copyright (c) Steve Scherf et al.
# Submitted via: ExactAudioCopy v0.99pb5
#
DISCID=06115614
DTITLE=Benoît Charest - LesTriplettes de Belleville
DYEAR=2003
DGENRE=Soundtrack
TTITLE0=Sous le pont
TTITLE1=Belleville rendez-vous (version française par -M-)
TTITLE2=Générique d'ouverture
TTITLE3=Cabaret d'ouverture
TTITLE4=Tour de France
TTITLE5=Attila Marcel
TTITLE6=Thème Bruno
TTITLE7=Tout doux Bruno
TTITLE8=Belleville rendez-vous (maquette)
TTITLE9=Thème de la French Mafia
TTITLE10=Bach à la jazz
TTITLE11=Cabaret aspirateur
TTITLE12=La jungle de Belleville
TTITLE13=Barbier "Cieco, cieco"
TTITLE14=Pa pa pa palavas
TTITLE15=Retour de la French Mafia
TTITLE16=Filature
TTITLE17=Poursuite
TTITLE18=Belleville rendez-vous (version anglaise par -M-)
TTITLE19=Data
EXTD=YEAR: 2003
EXTT0=
EXTT1=
EXTT2=
EXTT3=
EXTT4=
EXTT5=
EXTT6=
EXTT7=
EXTT8=
EXTT9=
EXTT10=
EXTT11=
EXTT12=
EXTT13=
EXTT14=
EXTT15=
EXTT16=
EXTT17=
EXTT18=
EXTT19=
PLAYORDER=
